<svg xmlns="http://www.w3.org/2000/svg" width="29" height="29" viewBox="0 0 29 29">
  <path id="Icon_awesome-coins" data-name="Icon awesome-coins" d="M0,22.956v2.419C0,27.374,4.871,29,10.875,29S21.75,27.374,21.75,25.375V22.956c-2.339,1.648-6.616,2.419-10.875,2.419S2.339,24.6,0,22.956ZM18.125,7.25C24.129,7.25,29,5.624,29,3.625S24.129,0,18.125,0,7.25,1.626,7.25,3.625,12.121,7.25,18.125,7.25ZM0,17.015v2.923c0,2,4.871,3.625,10.875,3.625S21.75,21.937,21.75,19.938V17.015c-2.339,1.926-6.621,2.923-10.875,2.923S2.339,18.941,0,17.015Zm23.563.623C26.808,17.009,29,15.842,29,14.5V12.081a13.909,13.909,0,0,1-5.437,1.954ZM10.875,9.063C4.871,9.063,0,11.09,0,13.594s4.871,4.531,10.875,4.531S21.75,16.1,21.75,13.594,16.879,9.063,10.875,9.063ZM23.3,12.251c3.4-.612,5.7-1.812,5.7-3.189V6.644c-2.011,1.422-5.466,2.186-9.1,2.368A6.343,6.343,0,0,1,23.3,12.251Z" fill="#fff"/>
</svg>
